<?xml version="1.0" standalone="no"?>
<!DOCTYPE svg PUBLIC "-//W3C//DTD SVG 20010904//EN"
 "http://www.w3.org/TR/2001/REC-SVG-20010904/DTD/svg10.dtd">
<svg version="1.0" xmlns="http://www.w3.org/2000/svg"
 width="344.000000pt" height="344.000000pt" viewBox="0 0 344.000000 344.000000"
 preserveAspectRatio="xMidYMid meet">

<g transform="translate(0.000000,344.000000) scale(0.100000,-0.100000)"
fill="#000000" stroke="none">
<path d="M2370 3351 c-6 -12 -10 -96 -10 -205 l0 -186 -173 0 c-123 0 -178 -4
-190 -12 -16 -12 -167 -358 -167 -383 0 -6 8 -19 18 -28 17 -16 84 -17 764
-17 709 0 746 1 761 18 10 10 17 24 17 30 0 26 -144 358 -163 375 -17 15 -42
17 -193 17 l-174 0 0 193 c0 137 -3 196 -12 205 -9 9 -76 12 -240 12 -214 0
-228 -1 -238 -19z m420 -221 l0 -170 -180 0 -180 0 0 170 0 170 180 0 180 0 0
-170z m457 -387 l61 -148 -349 -3 c-192 -1 -506 -1 -698 0 l-349 3 61 147 62
148 576 0 575 0 61 -147z"/>
<path d="M3011 2751 c-7 -5 -11 -19 -9 -32 4 -33 52 -35 56 -2 4 25 -27 46
-47 34z"/>
<path d="M825 2321 c-45 -11 -76 -29 -118 -70 -64 -61 -67 -83 -67 -518 l0
-383 -40 0 -40 0 0 68 c0 79 -20 126 -70 160 -64 43 -165 20 -204 -48 -12 -21
-21 -59 -24 -106 l-5 -74 -79 0 c-70 0 -82 -3 -103 -25 -24 -23 -25 -31 -25
-134 0 -106 1 -110 26 -130 15 -12 33 -21 40 -21 12 0 14 -77 14 -455 l0 -456
25 -24 24 -25 1541 0 1541 0 24 25 25 24 0 456 c0 404 2 455 15 455 9 0 27 11
40 25 23 23 25 31 25 130 0 99 -2 107 -25 130 -24 24 -28 25 -185 25 l-160 0
0 79 c0 104 -19 131 -91 131 -46 0 -62 11 -38 26 6 3 20 25 30 48 14 32 19 65
19 147 0 99 1 107 25 129 32 30 49 82 41 125 -10 50 -56 90 -144 123 -178 69
-326 69 -504 1 -81 -32 -132 -75 -144 -125 -9 -36 11 -96 41 -124 23 -22 25
-30 25 -119 0 -112 11 -159 46 -201 l26 -30 -55 0 c-48 0 -58 -4 -76 -26 -17
-22 -21 -41 -21 -105 l0 -79 -480 0 -480 0 0 63 c0 112 -60 187 -150 187 -90
0 -150 -75 -150 -187 l0 -63 -40 0 -40 0 0 381 c0 357 1 380 18 377 14 -3 18
-18 22 -91 6 -108 14 -117 110 -117 97 0 105 12 104 145 -1 84 -5 111 -23 148
-29 61 -79 103 -143 122 -55 16 -76 17 -123 6z m107 -73 c47 -14 93 -63 107
-115 6 -21 11 -66 11 -100 l0 -63 -39 0 -39 0 -4 81 c-3 74 -6 83 -31 105 -37
31 -78 31 -116 -2 l-31 -26 0 -389 0 -389 -40 0 -40 0 0 388 c0 382 0 388 23
432 16 33 34 51 67 68 50 25 76 27 132 10z m1813 -123 c169 -45 238 -110 170
-163 -58 -46 -449 -57 -588 -16 -28 8 -50 50 -43 80 8 29 90 72 186 98 73 19
202 20 275 1z m-135 -270 c74 0 164 3 198 7 l64 8 -4 -103 c-3 -89 -6 -106
-27 -136 -40 -56 -87 -71 -232 -71 -113 0 -130 2 -170 23 -68 36 -89 81 -89
194 l0 93 63 -8 c34 -4 123 -7 197 -7z m-2145 -350 c22 -21 25 -33 25 -90 l0
-65 -81 0 -81 0 4 71 c3 60 8 74 27 90 33 27 77 24 106 -6z m680 0 c22 -21 25
-33 25 -90 l0 -65 -81 0 -81 0 4 71 c3 60 8 74 27 90 33 27 77 24 106 -6z
m1805 -85 l0 -70 -340 0 -340 0 0 70 0 70 340 0 340 0 0 -70z m370 -225 l0
-85 -1600 0 -1600 0 0 85 0 85 1600 0 1600 0 0 -85z m-2150 -290 l0 -135 -485
0 -485 0 0 135 0 135 485 0 485 0 0 -135z m1030 0 l0 -135 -480 0 -480 0 0
135 0 135 480 0 480 0 0 -135z m1040 0 l0 -135 -485 0 -485 0 0 135 0 135 485
0 485 0 0 -135z m0 -480 l0 -275 -1520 0 -1520 0 0 275 0 275 1520 0 1520 0 0
-275z"/>
<path d="M650 926 c-27 -33 18 -72 48 -42 13 13 14 20 6 34 -15 23 -38 26 -54
8z"/>
<path d="M1702 931 c-8 -4 -12 -19 -10 -32 2 -18 9 -24 28 -24 19 0 26 6 28
24 3 20 -11 41 -28 41 -3 0 -11 -4 -18 -9z"/>
<path d="M2742 931 c-8 -4 -12 -19 -10 -32 2 -18 9 -24 28 -24 19 0 26 6 28
24 3 20 -11 41 -28 41 -3 0 -11 -4 -18 -9z"/>
</g>
</svg>
